<svg xmlns="http://www.w3.org/2000/svg" viewBox="0 0 16 16"><path d="M 2.5 2 A 0.5 0.5 0 0 0 2 2.5 A 0.5 0.5 0 0 0 2.5 3 A 0.5 0.5 0 0 0 3 2.5 A 0.5 0.5 0 0 0 2.5 2 z M 8.8847656 3 C 8.4166796 3 8 3.3770408 8 3.8632812 L 8 5 L 3 5 L 3 4 L 2 4 L 2 10.5 C 2 11.322531 2.6774686 12 3.5 12 L 8 12 L 8 13.166016 C 8 13.663421 8.4384889 13.998047 8.8847656 13.998047 L 13.115234 13.998047 C 13.561411 13.998047 14.001953 13.66161 14.001953 13.166016 L 14.001953 10.832031 C 14.001953 10.334625 13.561511 10 13.115234 10 L 10.867188 10 L 10.552734 9.4472656 C 10.393074 9.1618119 10.092658 9 9.7792969 9 L 8.8847656 9 C 8.4166796 9 8 9.3770409 8 9.8632812 L 8 11 L 3.5 11 C 3.2185314 11 3 10.781469 3 10.5 L 3 6 L 8 6 L 8 7.1679688 C 8 7.6628682 8.4379818 7.9991915 8.8847656 7.9980469 L 13.115234 7.9980469 C 13.561411 7.9980469 14.001953 7.6616098 14.001953 7.1660156 L 14.001953 4.8320312 C 14.001953 4.3346256 13.561511 4 13.115234 4 L 10.867188 4 L 10.552734 3.4472656 C 10.393074 3.1618119 10.092658 3 9.7792969 3 L 8.8847656 3 z M 9 4 L 9.7167969 4 L 10.066406 4.6152344 L 10.246094 5 L 10.564453 5 L 13.001953 5 L 13.001953 6.9980469 L 9 6.9980469 L 9 4 z M 9 10 L 9.7167969 10 L 10.066406 10.615234 L 10.246094 11 L 10.564453 11 L 13.001953 11 L 13.001953 12.998047 L 9 12.998047 L 9 10 z"></path></svg>